<svg width="189" height="57" viewBox="0 0 189 57" fill="none" xmlns="http://www.w3.org/2000/svg">
<rect width="189" height="57" fill="#CBF1F5"/>
<path d="M29.838 44.24C29.7047 43.1467 29.598 41.96 29.518 40.68C29.4647 39.3733 29.438 38.16 29.438 37.04C29.438 35.2533 29.4914 33.5467 29.598 31.92C29.7314 30.2667 29.878 28.5467 30.038 26.76C30.2247 24.9467 30.4247 22.9867 30.638 20.88C30.8514 18.7467 31.038 16.2933 31.198 13.52C31.5447 13.52 32.038 13.6267 32.678 13.84C33.3447 14.0267 34.0114 14.2533 34.678 14.52C35.3447 14.7867 35.9314 15.0667 36.438 15.36C36.9447 15.6267 37.238 15.8533 37.318 16.04C36.8647 17.08 36.4514 18.4533 36.078 20.16C35.7314 21.84 35.438 23.68 35.198 25.68C34.958 27.68 34.7714 29.7333 34.638 31.84C34.5047 33.9467 34.438 35.92 34.438 37.76C34.438 38.6133 34.4514 39.4533 34.478 40.28C34.5047 41.1067 34.5447 41.8667 34.598 42.56C35.158 41.7333 35.798 40.56 36.518 39.04C37.2647 37.4933 38.0247 35.7733 38.798 33.88C39.598 31.9867 40.3847 30.0133 41.158 27.96C41.958 25.88 42.6914 23.9067 43.358 22.04C44.0247 20.1467 44.5847 18.4533 45.038 16.96C45.518 15.44 45.8514 14.2933 46.038 13.52C46.3847 13.52 46.8914 13.6267 47.558 13.84C48.2514 14.0267 48.918 14.2533 49.558 14.52C50.2247 14.7867 50.8114 15.0667 51.318 15.36C51.8247 15.6267 52.1047 15.8533 52.158 16.04C51.7047 17.08 51.2914 18.4533 50.918 20.16C50.5714 21.84 50.278 23.68 50.038 25.68C49.798 27.68 49.6114 29.7333 49.478 31.84C49.3447 33.9467 49.278 35.92 49.278 37.76C49.278 38.5333 49.278 39.3067 49.278 40.08C49.3047 40.8267 49.3447 41.5067 49.398 42.12C50.2514 39.9067 51.1314 37.72 52.038 35.56C52.9714 33.3733 53.8914 31.2933 54.798 29.32C55.7047 27.32 56.5847 25.4667 57.438 23.76C58.2914 22.0267 59.078 20.4933 59.798 19.16C60.518 17.8 61.1447 16.68 61.678 15.8C62.2114 14.92 62.6247 14.3333 62.918 14.04C63.5314 14.12 64.158 14.3467 64.798 14.72C65.4647 15.0667 66.0514 15.52 66.558 16.08C65.7847 16.6933 64.9047 17.7067 63.918 19.12C62.9314 20.5067 61.918 22.12 60.878 23.96C59.838 25.8 58.7847 27.76 57.718 29.84C56.678 31.92 55.7047 33.9467 54.798 35.92C53.8914 37.8933 53.078 39.7333 52.358 41.44C51.6647 43.1467 51.1314 44.52 50.758 45.56C50.0647 45.88 49.3847 46.04 48.718 46.04C47.8647 45.9333 47.0514 45.72 46.278 45.4C45.5314 45.08 44.998 44.6933 44.678 44.24C44.598 43.8133 44.5314 43.32 44.478 42.76C44.4247 42.1733 44.3847 41.6 44.358 41.04C44.3314 40.48 44.3047 39.9467 44.278 39.44C44.278 38.9067 44.278 38.4533 44.278 38.08C44.278 35.7067 44.3714 33.2933 44.558 30.84C44.7447 28.36 44.9714 25.7067 45.238 22.88C44.6247 24.6933 43.9447 26.64 43.198 28.72C42.4514 30.8 41.6647 32.8667 40.838 34.92C40.038 36.9467 39.2114 38.8933 38.358 40.76C37.5314 42.6 36.718 44.2 35.918 45.56C35.2247 45.88 34.5447 46.04 33.878 46.04C33.0247 45.9333 32.2114 45.72 31.438 45.4C30.6914 45.08 30.158 44.6933 29.838 44.24Z" fill="#6DFFB9"/>
<path d="M62.723 40.32C62.723 40.08 62.7364 39.7867 62.763 39.44C62.8164 39.0667 62.8964 38.5867 63.003 38C63.1097 37.3867 63.243 36.6533 63.403 35.8C63.5897 34.9467 63.8164 33.92 64.083 32.72C64.1364 32.4533 64.2564 32.0267 64.443 31.44C64.6297 30.8533 64.8697 30.24 65.163 29.6C65.483 28.9333 65.8564 28.2933 66.283 27.68C66.7364 27.0667 67.2697 26.6133 67.883 26.32C68.3364 26.4267 68.9364 26.7067 69.683 27.16C70.4297 27.5867 71.0697 28.1867 71.603 28.96C70.9897 29.6533 70.4697 30.3467 70.043 31.04C69.643 31.7333 69.2697 32.4533 68.923 33.2C68.603 33.9467 68.2964 34.72 68.003 35.52C67.7364 36.32 67.4297 37.16 67.083 38.04C66.7897 38.7867 66.523 39.56 66.283 40.36C66.043 41.1333 65.9097 41.8133 65.883 42.4C65.883 42.88 65.8697 43.2133 65.843 43.4C65.843 43.6133 65.7764 43.72 65.643 43.72C65.5364 43.72 65.323 43.6533 65.003 43.52C64.683 43.3867 64.3497 43.1867 64.003 42.92C63.683 42.6267 63.3897 42.2667 63.123 41.84C62.8564 41.4133 62.723 40.9067 62.723 40.32ZM70.363 22.96C70.363 22.8 70.403 22.56 70.483 22.24C70.3497 22.1067 70.2297 21.9067 70.123 21.64C70.043 21.3733 70.003 21.1333 70.003 20.92C70.003 20.68 70.0297 20.36 70.083 19.96C70.163 19.5333 70.2564 19.08 70.363 18.6C70.4697 18.12 70.603 17.6267 70.763 17.12C70.923 16.5867 71.083 16.1067 71.243 15.68C71.563 15.68 71.9497 15.7733 72.403 15.96C72.883 16.12 73.363 16.3467 73.843 16.64C74.323 16.9067 74.763 17.2133 75.163 17.56C75.563 17.88 75.8697 18.1867 76.083 18.48C75.7897 18.7733 75.403 19.1867 74.923 19.72C74.443 20.2267 73.9764 20.7733 73.523 21.36C73.0697 21.92 72.6564 22.4533 72.283 22.96C71.9097 23.4667 71.6697 23.8267 71.563 24.04C71.243 23.9867 70.963 23.8533 70.723 23.64C70.483 23.4 70.363 23.1733 70.363 22.96Z" fill="black"/>
<path d="M74.4962 27.68C74.3628 27.52 74.2428 27.1867 74.1362 26.68C74.0295 26.1467 73.9762 25.6933 73.9762 25.32C74.6695 25.3733 75.3362 25.4267 75.9762 25.48C76.6162 25.5067 77.2028 25.5333 77.7362 25.56C78.1362 24.76 78.5628 23.9733 79.0162 23.2C79.4962 22.4 79.9495 21.68 80.3762 21.04C80.8295 20.3733 81.2428 19.8133 81.6162 19.36C82.0162 18.9067 82.3228 18.6133 82.5362 18.48C82.8028 18.48 83.1362 18.5333 83.5362 18.64C83.9628 18.72 84.3895 18.84 84.8162 19C85.2428 19.1333 85.6295 19.28 85.9762 19.44C86.3228 19.6 86.5628 19.76 86.6962 19.92C85.8962 20.9333 85.2028 21.88 84.6162 22.76C84.0562 23.6133 83.4428 24.6 82.7762 25.72C83.3095 25.72 83.8428 25.7067 84.3762 25.68C84.9362 25.6533 85.4962 25.6133 86.0562 25.56C86.1895 25.6933 86.2962 25.8667 86.3762 26.08C86.4562 26.2667 86.4962 26.4667 86.4962 26.68C85.1895 27.16 83.6028 27.4267 81.7362 27.48C81.0695 28.76 80.4695 30.04 79.9362 31.32C79.4295 32.5733 78.9895 33.7867 78.6162 34.96C78.2695 36.1333 77.9895 37.24 77.7762 38.28C77.5895 39.32 77.4962 40.2533 77.4962 41.08C77.4962 42.2533 77.9362 42.9067 78.8162 43.04C79.6162 42.9333 80.3762 42.7333 81.0962 42.44C81.8162 42.1467 82.4562 41.7733 83.0162 41.32C83.1762 41.56 83.2695 41.76 83.2962 41.92C83.1362 42.16 82.8562 42.44 82.4562 42.76C82.0828 43.08 81.6695 43.3867 81.2162 43.68C80.7628 44 80.3228 44.2667 79.8962 44.48C79.4695 44.6933 79.1495 44.8133 78.9362 44.84C78.2695 44.8133 77.6028 44.6667 76.9362 44.4C76.2695 44.1333 75.6562 43.8 75.0962 43.4C74.5628 43 74.1228 42.56 73.7762 42.08C73.4295 41.5733 73.2562 41.08 73.2562 40.6C73.2562 39.96 73.3362 39.16 73.4962 38.2C73.6828 37.2133 73.9362 36.1467 74.2562 35C74.5762 33.8533 74.9495 32.6533 75.3762 31.4C75.8028 30.1467 76.2695 28.9067 76.7762 27.68H74.4962ZM86.1587 42.32C86.1587 41.3867 86.252 40.2933 86.4387 39.04C86.6253 37.76 86.892 36.4 87.2387 34.96C87.612 33.52 88.0387 32.0133 88.5187 30.44C89.0253 28.8667 89.5853 27.2933 90.1987 25.72C90.732 24.3067 91.3453 22.88 92.0387 21.44C92.7587 20 93.532 18.5867 94.3587 17.2C95.1853 15.8133 96.0387 14.4933 96.9187 13.24C97.8253 11.9867 98.732 10.84 99.6387 9.8C100.065 9.8 100.519 9.85333 100.999 9.96C101.505 10.0667 101.985 10.2133 102.439 10.4C102.919 10.56 103.345 10.76 103.719 11C104.119 11.24 104.439 11.48 104.679 11.72C102.679 13.7733 100.879 15.8533 99.2787 17.96C97.6787 20.04 96.412 22 95.4787 23.84C94.972 24.8533 94.5053 25.8 94.0787 26.68C93.6787 27.56 93.3053 28.44 92.9587 29.32C92.612 30.1733 92.292 31.04 91.9987 31.92C91.732 32.7733 91.4787 33.68 91.2387 34.64C96.3587 28.1067 100.159 24.84 102.639 24.84C103.332 24.84 104.079 25.0667 104.879 25.52C105.679 25.9733 106.385 26.5867 106.999 27.36C106.172 28.2667 105.319 29.36 104.439 30.64C103.559 31.92 102.745 33.2133 101.999 34.52C101.279 35.8 100.679 37 100.199 38.12C99.7453 39.2133 99.5187 40.0267 99.5187 40.56C99.5187 40.8267 99.5587 41.0133 99.6387 41.12C99.7187 41.2 99.892 41.24 100.159 41.24C100.559 41.24 100.879 41.1867 101.119 41.08C101.359 40.9733 101.505 40.92 101.559 40.92C101.692 41.1333 101.772 41.28 101.799 41.36C101.825 41.44 101.839 41.5067 101.839 41.56C101.839 41.6667 101.679 41.8267 101.359 42.04C101.039 42.2267 100.652 42.4267 100.199 42.64C99.772 42.8267 99.3453 43 98.9187 43.16C98.492 43.32 98.172 43.4 97.9587 43.4C97.692 43.4 97.4253 43.32 97.1587 43.16C96.892 43.0267 96.652 42.84 96.4387 42.6C96.252 42.36 96.092 42.0933 95.9587 41.8C95.852 41.5067 95.7987 41.2 95.7987 40.88C95.7987 40.48 95.9053 39.8933 96.1187 39.12C96.3587 38.32 96.6787 37.4 97.0787 36.36C97.4787 35.2933 97.9587 34.1333 98.5187 32.88C99.0787 31.6267 99.6787 30.3467 100.319 29.04C100.319 28.9333 100.265 28.88 100.159 28.88C100.079 28.88 99.8653 28.9867 99.5187 29.2C99.1987 29.4133 98.892 29.6267 98.5987 29.84C97.6387 30.56 96.6653 31.4533 95.6787 32.52C94.7187 33.56 93.772 34.7067 92.8387 35.96C91.932 37.2133 91.0653 38.5467 90.2387 39.96C89.4387 41.3467 88.7453 42.7467 88.1587 44.16C88.0787 44.3467 87.9587 44.52 87.7987 44.68C87.6387 44.84 87.5053 44.92 87.3987 44.92C87.3187 44.92 87.1987 44.8267 87.0387 44.64C86.9053 44.4533 86.772 44.2133 86.6387 43.92C86.532 43.6533 86.4253 43.3733 86.3187 43.08C86.212 42.7867 86.1587 42.5333 86.1587 42.32ZM105.903 42.2C106.036 41.4267 106.263 40.4133 106.583 39.16C106.929 37.88 107.329 36.5333 107.783 35.12C108.236 33.68 108.716 32.24 109.223 30.8C109.729 29.36 110.223 28.0667 110.703 26.92C111.049 26.0933 111.356 25.4533 111.623 25C111.889 24.52 112.183 24.12 112.503 23.8C112.876 23.8533 113.263 23.9467 113.663 24.08C114.063 24.2133 114.449 24.3733 114.823 24.56C115.196 24.7467 115.529 24.9467 115.823 25.16C116.116 25.3467 116.343 25.5333 116.503 25.72C115.783 26.5733 115.143 27.5467 114.583 28.64C114.049 29.7333 113.503 31.1333 112.943 32.84C114.383 31.56 115.649 30.3333 116.743 29.16C117.863 27.9867 118.903 26.68 119.863 25.24C120.023 25.1067 120.303 25.04 120.703 25.04C121.076 25.04 121.436 25.1067 121.783 25.24C122.129 25.3467 122.369 25.5067 122.503 25.72C122.023 27 121.783 28.2667 121.783 29.52C121.783 30.6933 121.956 31.5733 122.303 32.16C122.276 32.32 122.089 32.6267 121.743 33.08C121.423 33.5333 121.063 33.96 120.663 34.36C119.943 33.9867 119.303 33.48 118.743 32.84C118.183 32.1733 117.769 31.4533 117.503 30.68C116.249 31.56 115.183 32.4267 114.303 33.28C113.423 34.1067 112.663 35.04 112.023 36.08C111.409 37.0933 110.876 38.2667 110.423 39.6C109.996 40.9333 109.583 42.52 109.183 44.36C108.943 44.3333 108.649 44.24 108.303 44.08C107.983 43.9467 107.649 43.7733 107.303 43.56C106.983 43.3467 106.689 43.12 106.423 42.88C106.156 42.64 105.983 42.4133 105.903 42.2ZM133.876 42.12C133.369 41.6933 133.022 41.16 132.836 40.52C132.676 39.88 132.596 39.3333 132.596 38.88C132.596 38.32 132.662 37.84 132.796 37.44C132.689 37.44 132.449 37.6533 132.076 38.08C131.702 38.5067 131.289 39.0133 130.836 39.6C130.409 40.1867 129.982 40.76 129.556 41.32C129.129 41.88 128.809 42.2933 128.596 42.56C128.249 42.9333 127.916 43.2267 127.596 43.44C127.302 43.6533 127.062 43.7733 126.876 43.8C126.449 43.7733 125.996 43.68 125.516 43.52C125.062 43.3867 124.622 43.1867 124.196 42.92C123.796 42.6533 123.436 42.3333 123.116 41.96C122.822 41.5867 122.622 41.16 122.516 40.68C122.516 39.9333 122.529 39.32 122.556 38.84C122.609 38.36 122.702 37.84 122.836 37.28C123.076 36.2667 123.422 35.12 123.876 33.84C124.356 32.56 124.902 31.3067 125.516 30.08C126.129 28.8267 126.809 27.6667 127.556 26.6C128.329 25.5067 129.142 24.6533 129.996 24.04C130.236 24.04 130.516 24.0667 130.836 24.12C131.156 24.1467 131.476 24.2133 131.796 24.32C132.142 24.4267 132.462 24.56 132.756 24.72C133.076 24.8533 133.342 25.04 133.556 25.28C133.316 25.5467 132.702 26.44 131.716 27.96C130.756 29.48 129.676 31.6667 128.476 34.52C128.342 34.8133 128.182 35.24 127.996 35.8C127.809 36.36 127.622 36.9467 127.436 37.56C127.249 38.1733 127.089 38.7733 126.956 39.36C126.849 39.9467 126.796 40.4133 126.796 40.76C126.796 40.9733 126.822 41.1333 126.876 41.24C126.956 41.3467 127.022 41.4267 127.076 41.48C127.476 41.32 127.982 40.88 128.596 40.16C129.209 39.44 130.062 38.3333 131.156 36.84C131.422 36.4667 131.729 36.04 132.076 35.56C132.449 35.08 132.822 34.5733 133.196 34.04C133.569 33.48 133.916 32.9067 134.236 32.32C134.582 31.7333 134.862 31.1467 135.076 30.56C135.182 30.24 135.316 29.8667 135.476 29.44C135.662 28.9867 135.876 28.52 136.116 28.04C136.382 27.56 136.676 27.08 136.996 26.6C137.342 26.0933 137.742 25.6267 138.196 25.2C138.542 25.2 138.916 25.24 139.316 25.32C139.716 25.4 140.089 25.5067 140.436 25.64C140.809 25.7467 141.129 25.88 141.396 26.04C141.662 26.1733 141.862 26.32 141.996 26.48C141.516 27.6533 140.982 28.8133 140.396 29.96C139.809 31.1067 139.262 32.24 138.756 33.36C138.249 34.4533 137.822 35.5467 137.476 36.64C137.129 37.7333 136.956 38.8 136.956 39.84C136.956 40.4 136.996 40.8933 137.076 41.32C137.182 41.72 137.289 42.0667 137.396 42.36C137.502 42.6267 137.596 42.8533 137.676 43.04C137.782 43.2267 137.836 43.3867 137.836 43.52C137.836 43.5467 137.809 43.5867 137.756 43.64C137.729 43.6667 137.702 43.68 137.676 43.68C137.489 43.68 137.249 43.64 136.956 43.56C136.662 43.48 136.329 43.36 135.956 43.2C135.609 43.0667 135.249 42.9067 134.876 42.72C134.529 42.5333 134.196 42.3333 133.876 42.12ZM165.725 30.72C165.298 30.7467 164.778 31.0267 164.165 31.56C163.552 32.0667 162.885 32.7333 162.165 33.56C161.472 34.36 160.738 35.2533 159.965 36.24C159.218 37.2267 158.485 38.2133 157.765 39.2C157.072 40.16 156.418 41.0667 155.805 41.92C155.192 42.7733 154.672 43.4533 154.245 43.96C153.658 43.72 153.152 43.3733 152.725 42.92C152.298 42.44 151.992 41.8533 151.805 41.16C151.938 40.3333 152.125 39.48 152.365 38.6C152.605 37.6933 152.912 36.76 153.285 35.8C153.685 34.84 154.165 33.84 154.725 32.8C155.312 31.7333 156.018 30.6133 156.845 29.44C156.445 29.4667 155.898 29.76 155.205 30.32C154.512 30.8533 153.765 31.56 152.965 32.44C152.165 33.2933 151.338 34.2667 150.485 35.36C149.632 36.4267 148.832 37.48 148.085 38.52C147.098 39.9067 146.272 41.12 145.605 42.16C144.965 43.2 144.498 43.8133 144.205 44C143.512 43.4933 143.032 42.9467 142.765 42.36C142.498 41.7733 142.298 41.12 142.165 40.4C142.192 39.76 142.285 38.96 142.445 38C142.632 37.04 142.885 36.0533 143.205 35.04C143.818 33.0933 144.605 31.16 145.565 29.24C146.552 27.32 147.498 25.56 148.405 23.96C149.152 24.12 149.818 24.3733 150.405 24.72C151.018 25.0667 151.658 25.5733 152.325 26.24C152.058 27.0667 151.645 27.9467 151.085 28.88C150.525 29.7867 149.938 30.7467 149.325 31.76C148.712 32.7733 148.152 33.8133 147.645 34.88C147.138 35.9467 146.805 37.0267 146.645 38.12C147.392 37.0533 148.272 35.8267 149.285 34.44C150.325 33.0533 151.378 31.7467 152.445 30.52C153.538 29.2933 154.618 28.2533 155.685 27.4C156.752 26.5467 157.712 26.12 158.565 26.12C158.885 26.12 159.232 26.1733 159.605 26.28C159.978 26.3867 160.325 26.52 160.645 26.68C160.965 26.84 161.232 27 161.445 27.16C161.658 27.2933 161.778 27.4 161.805 27.48C161.672 28.0133 161.352 28.7467 160.845 29.68C160.365 30.5867 159.845 31.5467 159.285 32.56C158.725 33.5733 158.205 34.56 157.725 35.52C157.245 36.4533 156.965 37.2 156.885 37.76C158.192 35.9733 159.418 34.36 160.565 32.92C161.712 31.4533 162.792 30.2 163.805 29.16C164.818 28.12 165.752 27.32 166.605 26.76C167.485 26.2 168.312 25.92 169.085 25.92C169.618 25.92 170.112 26.0667 170.565 26.36C171.045 26.6267 171.378 27.0267 171.565 27.56C171.325 28.36 170.925 29.32 170.365 30.44C169.832 31.56 169.285 32.7467 168.725 34C168.165 35.2267 167.658 36.44 167.205 37.64C166.778 38.84 166.565 39.92 166.565 40.88C166.565 41.44 166.645 41.8133 166.805 42C166.965 42.16 167.192 42.24 167.485 42.24C167.805 42.24 168.098 42.1867 168.365 42.08C168.658 41.9467 168.872 41.88 169.005 41.88C169.165 41.9867 169.258 42.12 169.285 42.28C169.312 42.44 169.325 42.5867 169.325 42.72C168.792 43.1467 168.245 43.4933 167.685 43.76C167.125 44.0533 166.498 44.2 165.805 44.2C165.165 44.2 164.632 44.0933 164.205 43.88C163.805 43.6667 163.472 43.3733 163.205 43C162.938 42.6267 162.752 42.2 162.645 41.72C162.538 41.24 162.485 40.72 162.485 40.16C162.485 39.2533 162.605 38.36 162.845 37.48C163.085 36.5733 163.365 35.72 163.685 34.92C164.032 34.0933 164.392 33.3333 164.765 32.64C165.138 31.92 165.458 31.28 165.725 30.72Z" fill="#073100"/>
</svg>
